<svg xmlns="http://www.w3.org/2000/svg" viewBox="0 0 124 188"><defs><style>.cls-1{fill:#f725a0}.cls-2{fill:#ffb3cd}.cls-3{fill:#d27dff}.cls-4{fill:#0cb2c0}.cls-5{fill:#fad141}</style></defs><g id="Layer_2" data-name="Layer 2"><g id="Objects"><path class="cls-1" d="M80 128h28v28H80z"/><path class="cls-2" d="M48 128h28v28H48z"/><path class="cls-3" d="M96 160h28v28H96z"/><path class="cls-4" d="M32 160h28v28H32z"/><path class="cls-5" d="M64 160h28v28H64z"/><path class="cls-2" d="M0 160h28v28H0z"/><path class="cls-5" d="M16 128h28v28H16z"/><path class="cls-1" d="M80 64h28v28H80z"/><path class="cls-2" d="M48 64h28v28H48z"/><path class="cls-3" d="M96 96h28v28H96z"/><path class="cls-4" d="M32 96h28v28H32z"/><path class="cls-5" d="M64 96h28v28H64z"/><path class="cls-2" d="M0 96h28v28H0z"/><path class="cls-5" d="M16 64h28v28H16z"/><path class="cls-1" d="M80 0h28v28H80z"/><path class="cls-2" d="M48 0h28v28H48z"/><path class="cls-3" d="M96 32h28v28H96z"/><path class="cls-4" d="M32 32h28v28H32z"/><path class="cls-5" d="M64 32h28v28H64z"/><path class="cls-2" d="M0 32h28v28H0z"/><path class="cls-5" d="M16 0h28v28H16z"/></g></g></svg>