<svg xmlns="http://www.w3.org/2000/svg" viewBox="0 0 122 122"><g data-name="Layer 2"><circle cx="66.09" cy="64.08" r="54.51" fill="#9fdae5"/><path d="M38.52 78.92a2.18 2.18 0 00-2.24 2.36 2.28 2.28 0 104.54-.19 2.26 2.26 0 00-2.3-2.17zM8.53 49.11a2.19 2.19 0 00-2.37 2.11 2.33 2.33 0 002.12 2.56 2.34 2.34 0 10.25-4.67zm69.76-9.96a2.3 2.3 0 00-2.24 2.43 2.27 2.27 0 002.24 2.24 2.19 2.19 0 002.3-2.3 2.28 2.28 0 00-2.3-2.37zM48 14a2.28 2.28 0 002.49-2.18 2.36 2.36 0 00-2.18-2.49A2.23 2.23 0 0046 11.4a2.2 2.2 0 002 2.6zM18.67 79a2.3 2.3 0 100 4.6 2.23 2.23 0 002.24-2.24A2.27 2.27 0 0018.67 79zm59.62 4.65a2.28 2.28 0 002.3-2.37 2.22 2.22 0 00-2.3-2.3 2.34 2.34 0 00-2.24 2.43 2.31 2.31 0 002.24 2.24zM48.23 53.71a2.26 2.26 0 002.3-2.36 2.31 2.31 0 00-2.43-2.24 2.18 2.18 0 00-2.17 2.43 2.22 2.22 0 002.3 2.17zm-9.71-14.5a2.24 2.24 0 00-2.24 2.24 2.4 2.4 0 002.24 2.43 2.19 2.19 0 002.3-2.18 2.27 2.27 0 00-2.3-2.49zM68.14 9.34a2.23 2.23 0 00-2.24 2.37 2.27 2.27 0 004.54-.06 2.26 2.26 0 00-2.3-2.31zM8.59 69.08a2.15 2.15 0 00-2.43 2.12 2.19 2.19 0 002.24 2.36 2.23 2.23 0 002.37-2.24 2.27 2.27 0 00-2.18-2.24zm39.64 39.77a2.11 2.11 0 00-2.3 2.12 2.07 2.07 0 002.07 2.42 2.2 2.2 0 002.43-2.18 2.22 2.22 0 00-2.2-2.36zM98.39 79A2.45 2.45 0 0096 81.28a2.3 2.3 0 104.6.06A2.36 2.36 0 0098.39 79zM98 39.21a2.34 2.34 0 00-2 2.43 2.23 2.23 0 002.36 2.12 2.46 2.46 0 002.31-2.43A2.54 2.54 0 0098 39.21zm-9.94 9.9c-1.31.06-2.24.62-2.31 2.11a2.2 2.2 0 002.12 2.49 2.22 2.22 0 002.43-2.17 2.32 2.32 0 00-2.24-2.43zm-69.33-5.29a2.2 2.2 0 002.18-2.3 2.23 2.23 0 00-2.3-2.31c-1.31.19-2.18.81-2.18 2.31a2.22 2.22 0 002.3 2.3zm49.35 9.89a2.18 2.18 0 002.3-2.3A2.15 2.15 0 0068 49.17a2.11 2.11 0 00-2.12 2.3 2.14 2.14 0 002.2 2.24zm39.77 0a2.3 2.3 0 10.06-4.6 2.3 2.3 0 00-.06 4.6zm.15 19.92a2.28 2.28 0 10-2.3-2.37 2.27 2.27 0 002.3 2.37zM48.17 88.94c-1.5 0-2.12.8-2.24 2.17a2.27 2.27 0 104.54.13 2.18 2.18 0 00-2.3-2.3zm.12-19.86A2.11 2.11 0 0046 71.2a2.17 2.17 0 002.18 2.43 2.28 2.28 0 002.36-2.31 2.24 2.24 0 00-2.25-2.24zM28.31 88.87a2.2 2.2 0 00-2.17 2.31 2.15 2.15 0 002.11 2.3 2.4 2.4 0 002.43-2.24 2.37 2.37 0 00-2.37-2.37zM68 108.85a2.23 2.23 0 00-2.18 2.3 2.27 2.27 0 002.18 2.3 2.18 2.18 0 002.3-2.3 2.16 2.16 0 00-2.3-2.3zm10.53-9.96a2.35 2.35 0 00-2.48 2.18 2.43 2.43 0 002.24 2.43 2.27 2.27 0 002.3-2.18 2.18 2.18 0 00-2.06-2.43zM28.38 53.71a2.32 2.32 0 002.36-2.17 2.35 2.35 0 00-2.24-2.43 2.23 2.23 0 00-2.3 2.36 2.17 2.17 0 002.18 2.24zM78.29 59a2.39 2.39 0 00-2.24 2.43 2.15 2.15 0 002.3 2.12 2.08 2.08 0 002.24-2.18 2.32 2.32 0 00-2.3-2.37zm0-35.22a2.15 2.15 0 002.3-2.12 2.12 2.12 0 00-2.24-2.36 2.26 2.26 0 00-2.3 2.3 2.17 2.17 0 002.24 2.18zM58.43 39.21a2.35 2.35 0 00-2.3 2.37 2.21 2.21 0 002.3 2.18 2.13 2.13 0 002.24-2.37 2.3 2.3 0 00-2.24-2.18zM68 88.94a2 2 0 00-2.12 2.11A2.13 2.13 0 0068 93.42a2.28 2.28 0 002.48-2.18 2.25 2.25 0 00-2.48-2.3zm20.06 0a2.1 2.1 0 00-2.24 2.17 2.16 2.16 0 002.24 2.37 2.27 2.27 0 100-4.54zM58.5 79a2.49 2.49 0 00-2.37 2.36 2.55 2.55 0 002.43 2.31 2.24 2.24 0 002.11-2.37A2.26 2.26 0 0058.5 79zm9.58-5.37a2.24 2.24 0 002.36-2.31 2.07 2.07 0 00-2.17-2.24 2.2 2.2 0 00-2.37 2.24 2.17 2.17 0 002.18 2.31zm-39.83 0a2.37 2.37 0 002.43-2.31 2.32 2.32 0 00-2.24-2.24 2.14 2.14 0 00-2.24 2.18 2.06 2.06 0 002.05 2.37zm19.92-44.25a2.07 2.07 0 00-2.24 2.18 2.3 2.3 0 002.3 2.36 2.4 2.4 0 002.24-2.42 2.11 2.11 0 00-2.3-2.12zm19.91 4.48a2.4 2.4 0 002.36-2.36 2.07 2.07 0 00-2.24-2.18A2 2 0 0066 31.5a2.21 2.21 0 002.08 2.36zM38.65 23.78a2.14 2.14 0 002.17-2.24 2.24 2.24 0 10-4.48.12 2.08 2.08 0 002.31 2.12zM88 33.86a2.34 2.34 0 002.24-2.43 2.15 2.15 0 00-2.36-2.05 2 2 0 00-2.12 2.3A2.22 2.22 0 0088 33.86zm.06 39.77a2.28 2.28 0 00-.13-4.55 2.15 2.15 0 00-2.18 2.24 2.2 2.2 0 002.31 2.31zm-47.24-12.2A2.24 2.24 0 0038.58 59a2.41 2.41 0 00-2.3 2.24 2.1 2.1 0 002.18 2.24 2 2 0 002.36-2.05zm-22.28 2.12a2.16 2.16 0 002.37-2.06 2.33 2.33 0 00-2.05-2.42 2.48 2.48 0 00-2.49 2.24 2.14 2.14 0 002.17 2.24zm79.72 0a2.48 2.48 0 002.37-2.18A2.72 2.72 0 0098.2 59a2.54 2.54 0 00-2.2 2.37 2.11 2.11 0 002.26 2.18zM28.31 33.86a2.54 2.54 0 002.37-2.36 2.21 2.21 0 00-2.37-2.12 1.92 1.92 0 00-2.17 2 2.32 2.32 0 002.17 2.48zm10.27 65.03a2.45 2.45 0 00-2.3 2.43 2.38 2.38 0 002.37 2.18 2.19 2.19 0 002.17-2.3 2.32 2.32 0 00-2.24-2.31zm19.79-75.11a2.14 2.14 0 002.24-2.18 2.15 2.15 0 00-2.11-2.36 2.31 2.31 0 00-2.37 2.3 2.36 2.36 0 002.24 2.24zm0 39.77a2.14 2.14 0 002.24-2.18 2.27 2.27 0 00-2.18-2.3 2.54 2.54 0 00-2.3 2.42 2.26 2.26 0 002.24 2.06zm0 35.34a2.71 2.71 0 00-2.24 2.37 2.65 2.65 0 002.37 2.24 2.31 2.31 0 00-.13-4.61z"/><path d="M61 119a58 58 0 1158-58 58.06 58.06 0 01-58 58z" fill="none" stroke="#000" stroke-miterlimit="10" stroke-width="6"/></g></svg>