<svg xmlns="http://www.w3.org/2000/svg" viewBox="0 0 181.38 212.12"><defs><style>.cls-1,.cls-2{fill:none;stroke:#000}.cls-1{stroke-linecap:round;stroke-linejoin:round;stroke-width:5px}.cls-2{stroke-miterlimit:10}</style></defs><g id="Layer_2" data-name="Layer 2"><g id="Objects"><path class="cls-1" d="M106.38 138.13c6.91 0 5.72 12.25 14.54 12.25m-43.61-12.25c6.91 0 5.72 12.25 14.53 12.25m14.54-12.25c-6.91 0-5.72 12.25-14.54 12.25m-14.53-12.25c-6.91 0-5.72 12.25-14.54 12.25m100.61-12.25c6.91 0 5.72 12.25 14.54 12.25m-43.61-12.25c6.91 0 5.72 12.25 14.53 12.25m14.54-12.25c-6.91 0-5.72 12.25-14.54 12.25m-14.53-12.25c-6.91 0-5.72 12.25-14.54 12.25"/><path class="cls-2" d="M149.22 18.5h31.65v31.65h-31.65z"/><path class="cls-1" d="M141.22 2.5h31.65v31.65h-31.65z"/><path class="cls-2" d="M44.95 193.62l-10.5-17.98-10.47 17.99-10.48 17.99 20.97-.02 20.98-.01-10.5-17.97z"/><path class="cls-1" d="M33.95 175.55l-10.5-18.16-10.47 18.17L2.5 193.74l20.97-.02 20.98-.01-10.5-18.16z"/></g></g></svg>